<mxfile host="app.diagrams.net" agent="Mozilla/5.0 (Windows NT 10.0; Win64; x64) AppleWebKit/537.36 (KHTML, like Gecko) Chrome/127.0.0.0 Safari/537.36" version="24.7.7">
  <diagram id="R2lEEEUBdFMjLlhIrx00" name="Page-1">
    <mxGraphModel dx="2085" dy="665" grid="1" gridSize="10" guides="1" tooltips="1" connect="1" arrows="1" fold="1" page="1" pageScale="1" pageWidth="850" pageHeight="1100" math="0" shadow="0" extFonts="Permanent Marker^https://fonts.googleapis.com/css?family=Permanent+Marker">
      <root>
        <mxCell id="0" />
        <mxCell id="1" parent="0" />
        <mxCell id="C-vyLk0tnHw3VtMMgP7b-1" value="" style="edgeStyle=entityRelationEdgeStyle;endArrow=none;startArrow=ERmany;endFill=0;startFill=0;entryX=0;entryY=0.5;entryDx=0;entryDy=0;" parent="1" source="C-vyLk0tnHw3VtMMgP7b-24" target="oM8nnvxndXrUR5HV9yAU-15" edge="1">
          <mxGeometry width="100" height="100" relative="1" as="geometry">
            <mxPoint x="340" y="720" as="sourcePoint" />
            <mxPoint x="440" y="620" as="targetPoint" />
          </mxGeometry>
        </mxCell>
        <mxCell id="C-vyLk0tnHw3VtMMgP7b-23" value="mahasiswa" style="shape=table;startSize=30;container=1;collapsible=1;childLayout=tableLayout;fixedRows=1;rowLines=0;fontStyle=1;align=center;resizeLast=1;" parent="1" vertex="1">
          <mxGeometry x="-30" y="140" width="110" height="135" as="geometry" />
        </mxCell>
        <mxCell id="C-vyLk0tnHw3VtMMgP7b-24" value="" style="shape=partialRectangle;collapsible=0;dropTarget=0;pointerEvents=0;fillColor=none;points=[[0,0.5],[1,0.5]];portConstraint=eastwest;top=0;left=0;right=0;bottom=1;" parent="C-vyLk0tnHw3VtMMgP7b-23" vertex="1">
          <mxGeometry y="30" width="110" height="30" as="geometry" />
        </mxCell>
        <mxCell id="C-vyLk0tnHw3VtMMgP7b-25" value="PK" style="shape=partialRectangle;overflow=hidden;connectable=0;fillColor=none;top=0;left=0;bottom=0;right=0;fontStyle=1;" parent="C-vyLk0tnHw3VtMMgP7b-24" vertex="1">
          <mxGeometry width="20" height="30" as="geometry">
            <mxRectangle width="20" height="30" as="alternateBounds" />
          </mxGeometry>
        </mxCell>
        <mxCell id="C-vyLk0tnHw3VtMMgP7b-26" value="NIM" style="shape=partialRectangle;overflow=hidden;connectable=0;fillColor=none;top=0;left=0;bottom=0;right=0;align=left;spacingLeft=6;fontStyle=5;" parent="C-vyLk0tnHw3VtMMgP7b-24" vertex="1">
          <mxGeometry x="20" width="90" height="30" as="geometry">
            <mxRectangle width="90" height="30" as="alternateBounds" />
          </mxGeometry>
        </mxCell>
        <mxCell id="C-vyLk0tnHw3VtMMgP7b-27" value="" style="shape=partialRectangle;collapsible=0;dropTarget=0;pointerEvents=0;fillColor=none;points=[[0,0.5],[1,0.5]];portConstraint=eastwest;top=0;left=0;right=0;bottom=0;" parent="C-vyLk0tnHw3VtMMgP7b-23" vertex="1">
          <mxGeometry y="60" width="110" height="75" as="geometry" />
        </mxCell>
        <mxCell id="C-vyLk0tnHw3VtMMgP7b-28" value="" style="shape=partialRectangle;overflow=hidden;connectable=0;fillColor=none;top=0;left=0;bottom=0;right=0;" parent="C-vyLk0tnHw3VtMMgP7b-27" vertex="1">
          <mxGeometry width="20" height="75" as="geometry">
            <mxRectangle width="20" height="75" as="alternateBounds" />
          </mxGeometry>
        </mxCell>
        <mxCell id="C-vyLk0tnHw3VtMMgP7b-29" value="nama&#xa;alamat&#xa;jurusan" style="shape=partialRectangle;overflow=hidden;connectable=0;fillColor=none;top=0;left=0;bottom=0;right=0;align=left;spacingLeft=6;verticalAlign=top;" parent="C-vyLk0tnHw3VtMMgP7b-27" vertex="1">
          <mxGeometry x="20" width="90" height="75" as="geometry">
            <mxRectangle width="90" height="75" as="alternateBounds" />
          </mxGeometry>
        </mxCell>
        <mxCell id="EbwzylO1AdSt2fWsFQU2-8" style="edgeStyle=orthogonalEdgeStyle;rounded=0;orthogonalLoop=1;jettySize=auto;html=1;exitX=1;exitY=0.5;exitDx=0;exitDy=0;entryX=0;entryY=0.5;entryDx=0;entryDy=0;endArrow=ERoneToMany;endFill=0;" parent="1" source="oM8nnvxndXrUR5HV9yAU-15" target="EbwzylO1AdSt2fWsFQU2-2" edge="1">
          <mxGeometry relative="1" as="geometry" />
        </mxCell>
        <mxCell id="oM8nnvxndXrUR5HV9yAU-15" value="Mengambil" style="rhombus;whiteSpace=wrap;html=1;" parent="1" vertex="1">
          <mxGeometry x="140" y="152.5" width="90" height="65" as="geometry" />
        </mxCell>
        <mxCell id="EbwzylO1AdSt2fWsFQU2-1" value="matakuliah" style="shape=table;startSize=30;container=1;collapsible=1;childLayout=tableLayout;fixedRows=1;rowLines=0;fontStyle=1;align=center;resizeLast=1;" parent="1" vertex="1">
          <mxGeometry x="290" y="140" width="130" height="135" as="geometry" />
        </mxCell>
        <mxCell id="EbwzylO1AdSt2fWsFQU2-2" value="" style="shape=partialRectangle;collapsible=0;dropTarget=0;pointerEvents=0;fillColor=none;points=[[0,0.5],[1,0.5]];portConstraint=eastwest;top=0;left=0;right=0;bottom=1;" parent="EbwzylO1AdSt2fWsFQU2-1" vertex="1">
          <mxGeometry y="30" width="130" height="30" as="geometry" />
        </mxCell>
        <mxCell id="EbwzylO1AdSt2fWsFQU2-3" value="PK" style="shape=partialRectangle;overflow=hidden;connectable=0;fillColor=none;top=0;left=0;bottom=0;right=0;fontStyle=1;" parent="EbwzylO1AdSt2fWsFQU2-2" vertex="1">
          <mxGeometry width="30" height="30" as="geometry">
            <mxRectangle width="30" height="30" as="alternateBounds" />
          </mxGeometry>
        </mxCell>
        <mxCell id="EbwzylO1AdSt2fWsFQU2-4" value="id_matakuliah" style="shape=partialRectangle;overflow=hidden;connectable=0;fillColor=none;top=0;left=0;bottom=0;right=0;align=left;spacingLeft=6;fontStyle=5;" parent="EbwzylO1AdSt2fWsFQU2-2" vertex="1">
          <mxGeometry x="30" width="100" height="30" as="geometry">
            <mxRectangle width="100" height="30" as="alternateBounds" />
          </mxGeometry>
        </mxCell>
        <mxCell id="EbwzylO1AdSt2fWsFQU2-5" value="" style="shape=partialRectangle;collapsible=0;dropTarget=0;pointerEvents=0;fillColor=none;points=[[0,0.5],[1,0.5]];portConstraint=eastwest;top=0;left=0;right=0;bottom=0;" parent="EbwzylO1AdSt2fWsFQU2-1" vertex="1">
          <mxGeometry y="60" width="130" height="75" as="geometry" />
        </mxCell>
        <mxCell id="EbwzylO1AdSt2fWsFQU2-6" value="" style="shape=partialRectangle;overflow=hidden;connectable=0;fillColor=none;top=0;left=0;bottom=0;right=0;" parent="EbwzylO1AdSt2fWsFQU2-5" vertex="1">
          <mxGeometry width="30" height="75" as="geometry">
            <mxRectangle width="30" height="75" as="alternateBounds" />
          </mxGeometry>
        </mxCell>
        <mxCell id="EbwzylO1AdSt2fWsFQU2-7" value="nama&#xa;sks" style="shape=partialRectangle;overflow=hidden;connectable=0;fillColor=none;top=0;left=0;bottom=0;right=0;align=left;spacingLeft=6;verticalAlign=top;" parent="EbwzylO1AdSt2fWsFQU2-5" vertex="1">
          <mxGeometry x="30" width="100" height="75" as="geometry">
            <mxRectangle width="100" height="75" as="alternateBounds" />
          </mxGeometry>
        </mxCell>
        <mxCell id="EbwzylO1AdSt2fWsFQU2-9" value="dosen" style="shape=table;startSize=30;container=1;collapsible=1;childLayout=tableLayout;fixedRows=1;rowLines=0;fontStyle=1;align=center;resizeLast=1;" parent="1" vertex="1">
          <mxGeometry x="300" y="538" width="110" height="135" as="geometry" />
        </mxCell>
        <mxCell id="EbwzylO1AdSt2fWsFQU2-10" value="" style="shape=partialRectangle;collapsible=0;dropTarget=0;pointerEvents=0;fillColor=none;points=[[0,0.5],[1,0.5]];portConstraint=eastwest;top=0;left=0;right=0;bottom=1;" parent="EbwzylO1AdSt2fWsFQU2-9" vertex="1">
          <mxGeometry y="30" width="110" height="30" as="geometry" />
        </mxCell>
        <mxCell id="EbwzylO1AdSt2fWsFQU2-11" value="PK" style="shape=partialRectangle;overflow=hidden;connectable=0;fillColor=none;top=0;left=0;bottom=0;right=0;fontStyle=1;" parent="EbwzylO1AdSt2fWsFQU2-10" vertex="1">
          <mxGeometry width="30" height="30" as="geometry">
            <mxRectangle width="30" height="30" as="alternateBounds" />
          </mxGeometry>
        </mxCell>
        <mxCell id="EbwzylO1AdSt2fWsFQU2-12" value="id_dosen" style="shape=partialRectangle;overflow=hidden;connectable=0;fillColor=none;top=0;left=0;bottom=0;right=0;align=left;spacingLeft=6;fontStyle=5;" parent="EbwzylO1AdSt2fWsFQU2-10" vertex="1">
          <mxGeometry x="30" width="80" height="30" as="geometry">
            <mxRectangle width="80" height="30" as="alternateBounds" />
          </mxGeometry>
        </mxCell>
        <mxCell id="EbwzylO1AdSt2fWsFQU2-13" value="" style="shape=partialRectangle;collapsible=0;dropTarget=0;pointerEvents=0;fillColor=none;points=[[0,0.5],[1,0.5]];portConstraint=eastwest;top=0;left=0;right=0;bottom=0;" parent="EbwzylO1AdSt2fWsFQU2-9" vertex="1">
          <mxGeometry y="60" width="110" height="75" as="geometry" />
        </mxCell>
        <mxCell id="EbwzylO1AdSt2fWsFQU2-14" value="" style="shape=partialRectangle;overflow=hidden;connectable=0;fillColor=none;top=0;left=0;bottom=0;right=0;" parent="EbwzylO1AdSt2fWsFQU2-13" vertex="1">
          <mxGeometry width="30" height="75" as="geometry">
            <mxRectangle width="30" height="75" as="alternateBounds" />
          </mxGeometry>
        </mxCell>
        <mxCell id="EbwzylO1AdSt2fWsFQU2-15" value="nama" style="shape=partialRectangle;overflow=hidden;connectable=0;fillColor=none;top=0;left=0;bottom=0;right=0;align=left;spacingLeft=6;horizontal=1;verticalAlign=top;" parent="EbwzylO1AdSt2fWsFQU2-13" vertex="1">
          <mxGeometry x="30" width="80" height="75" as="geometry">
            <mxRectangle width="80" height="75" as="alternateBounds" />
          </mxGeometry>
        </mxCell>
        <mxCell id="EbwzylO1AdSt2fWsFQU2-16" value="jurusan" style="shape=table;startSize=30;container=1;collapsible=1;childLayout=tableLayout;fixedRows=1;rowLines=0;fontStyle=1;align=center;resizeLast=1;" parent="1" vertex="1">
          <mxGeometry x="125" y="340" width="120" height="135" as="geometry" />
        </mxCell>
        <mxCell id="EbwzylO1AdSt2fWsFQU2-17" value="" style="shape=partialRectangle;collapsible=0;dropTarget=0;pointerEvents=0;fillColor=none;points=[[0,0.5],[1,0.5]];portConstraint=eastwest;top=0;left=0;right=0;bottom=1;" parent="EbwzylO1AdSt2fWsFQU2-16" vertex="1">
          <mxGeometry y="30" width="120" height="30" as="geometry" />
        </mxCell>
        <mxCell id="EbwzylO1AdSt2fWsFQU2-18" value="PK" style="shape=partialRectangle;overflow=hidden;connectable=0;fillColor=none;top=0;left=0;bottom=0;right=0;fontStyle=1;" parent="EbwzylO1AdSt2fWsFQU2-17" vertex="1">
          <mxGeometry width="30" height="30" as="geometry">
            <mxRectangle width="30" height="30" as="alternateBounds" />
          </mxGeometry>
        </mxCell>
        <mxCell id="EbwzylO1AdSt2fWsFQU2-19" value="id_jurusan" style="shape=partialRectangle;overflow=hidden;connectable=0;fillColor=none;top=0;left=0;bottom=0;right=0;align=left;spacingLeft=6;fontStyle=5;" parent="EbwzylO1AdSt2fWsFQU2-17" vertex="1">
          <mxGeometry x="30" width="90" height="30" as="geometry">
            <mxRectangle width="90" height="30" as="alternateBounds" />
          </mxGeometry>
        </mxCell>
        <mxCell id="EbwzylO1AdSt2fWsFQU2-20" value="" style="shape=partialRectangle;collapsible=0;dropTarget=0;pointerEvents=0;fillColor=none;points=[[0,0.5],[1,0.5]];portConstraint=eastwest;top=0;left=0;right=0;bottom=0;" parent="EbwzylO1AdSt2fWsFQU2-16" vertex="1">
          <mxGeometry y="60" width="120" height="75" as="geometry" />
        </mxCell>
        <mxCell id="EbwzylO1AdSt2fWsFQU2-21" value="" style="shape=partialRectangle;overflow=hidden;connectable=0;fillColor=none;top=0;left=0;bottom=0;right=0;" parent="EbwzylO1AdSt2fWsFQU2-20" vertex="1">
          <mxGeometry width="30" height="75" as="geometry">
            <mxRectangle width="30" height="75" as="alternateBounds" />
          </mxGeometry>
        </mxCell>
        <mxCell id="EbwzylO1AdSt2fWsFQU2-22" value="nama_jurusan" style="shape=partialRectangle;overflow=hidden;connectable=0;fillColor=none;top=0;left=0;bottom=0;right=0;align=left;spacingLeft=6;verticalAlign=top;" parent="EbwzylO1AdSt2fWsFQU2-20" vertex="1">
          <mxGeometry x="30" width="90" height="75" as="geometry">
            <mxRectangle width="90" height="75" as="alternateBounds" />
          </mxGeometry>
        </mxCell>
        <mxCell id="AyFsF2GUIDdz1upWYMAN-8" value="" style="edgeStyle=orthogonalEdgeStyle;rounded=0;orthogonalLoop=1;jettySize=auto;html=1;verticalAlign=middle;endArrow=ERoneToMany;endFill=0;" edge="1" parent="1" source="AyFsF2GUIDdz1upWYMAN-7" target="C-vyLk0tnHw3VtMMgP7b-27">
          <mxGeometry relative="1" as="geometry">
            <Array as="points">
              <mxPoint x="25" y="310" />
              <mxPoint x="25" y="310" />
            </Array>
          </mxGeometry>
        </mxCell>
        <mxCell id="AyFsF2GUIDdz1upWYMAN-9" value="" style="edgeStyle=orthogonalEdgeStyle;rounded=0;orthogonalLoop=1;jettySize=auto;html=1;endArrow=ERone;endFill=0;" edge="1" parent="1" source="AyFsF2GUIDdz1upWYMAN-7" target="EbwzylO1AdSt2fWsFQU2-17">
          <mxGeometry relative="1" as="geometry">
            <Array as="points">
              <mxPoint x="120" y="383" />
              <mxPoint x="120" y="383" />
            </Array>
          </mxGeometry>
        </mxCell>
        <mxCell id="AyFsF2GUIDdz1upWYMAN-7" value="mengambil" style="rhombus;whiteSpace=wrap;html=1;" vertex="1" parent="1">
          <mxGeometry x="-20" y="350" width="90" height="65" as="geometry" />
        </mxCell>
        <mxCell id="AyFsF2GUIDdz1upWYMAN-13" value="" style="edgeStyle=orthogonalEdgeStyle;rounded=0;orthogonalLoop=1;jettySize=auto;html=1;endArrow=ERmany;endFill=0;" edge="1" parent="1" source="AyFsF2GUIDdz1upWYMAN-11" target="EbwzylO1AdSt2fWsFQU2-5">
          <mxGeometry relative="1" as="geometry">
            <Array as="points">
              <mxPoint x="355" y="290" />
              <mxPoint x="355" y="290" />
            </Array>
          </mxGeometry>
        </mxCell>
        <mxCell id="AyFsF2GUIDdz1upWYMAN-14" value="" style="edgeStyle=orthogonalEdgeStyle;rounded=0;orthogonalLoop=1;jettySize=auto;html=1;entryX=1;entryY=0.5;entryDx=0;entryDy=0;endArrow=ERone;endFill=0;" edge="1" parent="1" source="AyFsF2GUIDdz1upWYMAN-11" target="EbwzylO1AdSt2fWsFQU2-17">
          <mxGeometry relative="1" as="geometry" />
        </mxCell>
        <mxCell id="AyFsF2GUIDdz1upWYMAN-11" value="bagian dari" style="rhombus;whiteSpace=wrap;html=1;" vertex="1" parent="1">
          <mxGeometry x="310" y="352.5" width="90" height="65" as="geometry" />
        </mxCell>
        <mxCell id="AyFsF2GUIDdz1upWYMAN-16" value="" style="edgeStyle=orthogonalEdgeStyle;rounded=0;orthogonalLoop=1;jettySize=auto;html=1;entryX=0.5;entryY=1.004;entryDx=0;entryDy=0;entryPerimeter=0;endArrow=ERone;endFill=0;" edge="1" parent="1" source="AyFsF2GUIDdz1upWYMAN-15" target="EbwzylO1AdSt2fWsFQU2-20">
          <mxGeometry relative="1" as="geometry" />
        </mxCell>
        <mxCell id="AyFsF2GUIDdz1upWYMAN-17" value="" style="edgeStyle=orthogonalEdgeStyle;rounded=0;orthogonalLoop=1;jettySize=auto;html=1;entryX=0;entryY=0.5;entryDx=0;entryDy=0;endArrow=ERoneToMany;endFill=0;" edge="1" parent="1" source="AyFsF2GUIDdz1upWYMAN-15" target="EbwzylO1AdSt2fWsFQU2-10">
          <mxGeometry relative="1" as="geometry" />
        </mxCell>
        <mxCell id="AyFsF2GUIDdz1upWYMAN-15" value="bagian dari" style="rhombus;whiteSpace=wrap;html=1;" vertex="1" parent="1">
          <mxGeometry x="140" y="550.5" width="90" height="65" as="geometry" />
        </mxCell>
        <mxCell id="AyFsF2GUIDdz1upWYMAN-26" value="" style="edgeStyle=orthogonalEdgeStyle;rounded=0;orthogonalLoop=1;jettySize=auto;html=1;entryX=1;entryY=0.5;entryDx=0;entryDy=0;endArrow=ERone;endFill=0;" edge="1" parent="1" source="AyFsF2GUIDdz1upWYMAN-24" target="EbwzylO1AdSt2fWsFQU2-10">
          <mxGeometry relative="1" as="geometry">
            <mxPoint x="515" y="590" as="targetPoint" />
          </mxGeometry>
        </mxCell>
        <mxCell id="AyFsF2GUIDdz1upWYMAN-27" style="edgeStyle=orthogonalEdgeStyle;rounded=0;orthogonalLoop=1;jettySize=auto;html=1;exitX=0.5;exitY=0;exitDx=0;exitDy=0;entryX=1;entryY=0.5;entryDx=0;entryDy=0;endArrow=ERoneToMany;endFill=0;" edge="1" parent="1" source="AyFsF2GUIDdz1upWYMAN-24" target="EbwzylO1AdSt2fWsFQU2-2">
          <mxGeometry relative="1" as="geometry" />
        </mxCell>
        <mxCell id="AyFsF2GUIDdz1upWYMAN-24" value="mengampu" style="rhombus;whiteSpace=wrap;html=1;" vertex="1" parent="1">
          <mxGeometry x="470" y="352.5" width="90" height="65" as="geometry" />
        </mxCell>
      </root>
    </mxGraphModel>
  </diagram>
</mxfile>
